# xmcd
#
# Track frame offsets:
#  150
#  14110
#  31255
#  53020
#  76177
#  90437
#  121955
#  140300
#  156267
#  172180
#  189577
#  212007
#  227685
#  254495
#  282960
#
# Disc length: 4086 seconds
#
# Revision: 0
# Processed by: cddbd v1.5.1PL2 Copyright (c) Steve Scherf et al.
# Submitted via: Collectorz.com_Music_Collector 6.9
#
DISCID=ca0ff40f
DTITLE=The Butanes - Day and Night - The Butanes
DYEAR=2001
DGENRE=Blues
TTITLE0=Moving On (I'm Gone)
TTITLE1=Back Door Santa
TTITLE2=Hello Sundown
TTITLE3=Nihjttime Is The Right Time
TTITLE4=Time Is Tight
TTITLE5=Body And Fender Man
TTITLE6=Double Eyed Whammy
TTITLE7=I'll Take You Back Home
TTITLE8=She's Better Than You
TTITLE9=I Got The Same Old Blues
TTITLE10=Groove Drops
TTITLE11=Kiddeo
TTITLE12=Use Me
TTITLE13=Operator
TTITLE14=Crosscut Saw
EXTD=
EXTT0=
EXTT1=
EXTT2=
EXTT3=
EXTT4=
EXTT5=
EXTT6=
EXTT7=
EXTT8=
EXTT9=
EXTT10=
EXTT11=
EXTT12=
EXTT13=
EXTT14=
PLAYORDER=
